HIERARCHY
ROOT Hips
{
	OFFSET 0.000000 0.000000 0.000000
	CHANNELS 6 Xposition Yposition Zposition Xrotation Yrotation Zrotation
	JOINT LeftUpLeg_virtual
	{
		OFFSET 0.000000 0.000000 0.000000
		CHANNELS 3 Xrotation Yrotation Zrotation
		JOINT LeftUpLeg
		{
			OFFSET 11.394100 -6.187798 -0.413800
			CHANNELS 3 Xrotation Yrotation Zrotation
			JOINT LeftLeg
			{
				OFFSET 0.430247 -32.302673 3.732800
				CHANNELS 3 Xrotation Yrotation Zrotation
				JOINT LeftFoot
				{
					OFFSET -0.430247 -48.264931 -6.423300
					CHANNELS 3 Xrotation Yrotation Zrotation
					JOINT LeftToeBase
					{
						OFFSET 4.230900 -16.068199 23.438400
						CHANNELS 3 Xrotation Yrotation Zrotation
						JOINT LeftToe_End
						{
							OFFSET 4.510700 0.695400 19.974600
							CHANNELS 3 Xrotation Yrotation Zrotation
							End Site
							{
								OFFSET 0 0 0
							}
						}
					}
				}
			}
		}
	}
	JOINT RightUpLeg_virtual
	{
		OFFSET 0.000000 0.000000 0.000000
		CHANNELS 3 Xrotation Yrotation Zrotation
		JOINT RightUpLeg
		{
			OFFSET -11.333700 -6.187798 -0.413800
			CHANNELS 3 Xrotation Yrotation Zrotation
			JOINT RightLeg
			{
				OFFSET -0.430392 -32.302628 3.733000
				CHANNELS 3 Xrotation Yrotation Zrotation
				JOINT RightFoot
				{
					OFFSET 0.430392 -48.264973 -6.423500
					CHANNELS 3 Xrotation Yrotation Zrotation
					JOINT RightToeBase
					{
						OFFSET -4.230900 -16.068199 23.438400
						CHANNELS 3 Xrotation Yrotation Zrotation
						JOINT RightToe_End
						{
							OFFSET -4.510700 0.695400 19.974600
							CHANNELS 3 Xrotation Yrotation Zrotation
							End Site
							{
								OFFSET 0 0 0
							}
						}
					}
				}
			}
		}
	}
	JOINT Spine_virtual
	{
		OFFSET 0.000000 0.000000 0.000000
		CHANNELS 3 Xrotation Yrotation Zrotation
		JOINT Spine
		{
			OFFSET -0.002400 12.777504 0.315300
			CHANNELS 3 Xrotation Yrotation Zrotation
			JOINT Spine1
			{
				OFFSET -0.002067 5.816869 0.032633
				CHANNELS 3 Xrotation Yrotation Zrotation
				JOINT Spine1_split
				{
					OFFSET -0.002067 5.816869 0.032633
					CHANNELS 3 Xrotation Yrotation Zrotation
					JOINT Spine2
					{
						OFFSET -0.002067 5.816869 0.032633
						CHANNELS 3 Xrotation Yrotation Zrotation
						JOINT Neck_virtual
						{
							OFFSET 0.000000 0.000000 0.000000
							CHANNELS 3 Xrotation Yrotation Zrotation
							JOINT Neck
							{
								OFFSET -0.003700 21.199493 -0.826900
								CHANNELS 3 Xrotation Yrotation Zrotation
								JOINT Head
								{
									OFFSET 0.000000 20.442200 4.834800
									CHANNELS 3 Xrotation Yrotation Zrotation
									JOINT HeadTop_End
									{
										OFFSET 0.000000 34.668396 4.968400
										CHANNELS 3 Xrotation Yrotation Zrotation
										End Site
										{
											OFFSET 0 0 0
										}
									}
								}
							}
						}
						JOINT LeftShoulder_virtual
						{
							OFFSET 0.000000 0.000000 0.000000
							CHANNELS 3 Xrotation Yrotation Zrotation
							JOINT LeftShoulder
							{
								OFFSET 3.288150 8.794197 -1.372250
								CHANNELS 3 Xrotation Yrotation Zrotation
								JOINT LeftShoulder_split
								{
									OFFSET 3.288150 8.794197 -1.372250
									CHANNELS 3 Xrotation Yrotation Zrotation
									JOINT LeftArm
									{
										OFFSET 11.953299 -2.279007 -0.146200
										CHANNELS 3 Xrotation Yrotation Zrotation
										JOINT LeftForeArm
										{
											OFFSET 18.448900 0.000000 0.000000
											CHANNELS 3 Xrotation Yrotation Zrotation
											JOINT LeftHand
											{
												OFFSET 29.527798 0.000000 0.000000
												CHANNELS 3 Xrotation Yrotation Zrotation
												End Site
												{
													OFFSET 0 0 0
												}
											}
										}
									}
								}
							}
						}
						JOINT RightShoulder_virtual
						{
							OFFSET 0.000000 0.000000 0.000000
							CHANNELS 3 Xrotation Yrotation Zrotation
							JOINT RightShoulder
							{
								OFFSET -3.249400 8.794197 -1.372250
								CHANNELS 3 Xrotation Yrotation Zrotation
								JOINT RightShoulder_split
								{
									OFFSET -3.249400 8.794197 -1.372250
									CHANNELS 3 Xrotation Yrotation Zrotation
									JOINT RightArm
									{
										OFFSET -11.953299 -2.279007 -0.146200
										CHANNELS 3 Xrotation Yrotation Zrotation
										JOINT RightForeArm
										{
											OFFSET -18.448900 0.000000 0.000000
											CHANNELS 3 Xrotation Yrotation Zrotation
											JOINT RightHand
											{
												OFFSET -29.527802 0.000000 0.000000
												CHANNELS 3 Xrotation Yrotation Zrotation
												End Site
												{
													OFFSET 0 0 0
												}
											}
										}
									}
								}
							}
						}
					}
				}
			}
		}
	}
}
MOTION
Frames: 6
Frame Time: 0.03333333
-0.360401 98.775253 -4.360916 0.000000 0.000000 0.000000 3.936683 6.788309 -0.786968 -16.332514 7.953976 7.429812 25.074552 1.886560 -0.697074 -13.119308 1.384900 -6.448823 -1.646557 0.574721 0.931352 0.000000 0.000000 0.000000 4.262193 5.498622 -1.213151 -12.493895 -5.100139 -8.065814 22.049208 -6.793117 5.259301 -6.994275 -16.387053 0.402261 -3.746108 -0.110982 -1.136490 0.000000 0.000000 0.000000 5.559060 3.035217 -2.094494 18.185768 -2.371887 -0.152959 0.139331 -0.101427 1.126137 1.184229 -0.662373 0.162315 0.000000 0.000000 0.000000 1.268494 -0.491049 0.430660 17.899503 2.972805 -0.671761 11.164927 2.244717 2.233075 0.000000 0.000000 0.000000 1.066131 0.054182 -0.060989 12.412333 -36.730920 -0.539037 1.980897 -1.655390 -3.260865 11.824816 17.361697 -47.101224 -1.283716 -36.917343 0.110832 0.000000 0.000000 0.000000 0.340381 -0.212970 0.690770 0.887866 -1.854498 7.493109 1.473171 6.235950 -1.369913 -0.272614 17.103362 36.718906 0.622921 15.334700 1.339968 0.000000 0.000000 0.000000 
-0.299059 98.903305 -4.123631 0.000000 0.000000 0.000000 3.742144 6.810784 -0.687068 -15.834907 8.143824 7.294442 24.589907 1.944924 -0.631406 -13.202289 1.412707 -6.233350 -1.589331 0.584478 0.935576 0.000000 0.000000 0.000000 4.101538 5.493275 -1.119483 -12.128709 -5.037978 -8.102394 21.832696 -6.639001 5.186126 -6.778915 -16.421274 0.499290 -3.672651 -0.132166 -1.127217 0.000000 0.000000 0.000000 5.319840 3.182151 -1.947617 17.584023 -2.408219 -0.146360 0.188995 -0.132092 1.038483 1.242086 -0.718569 0.119593 0.000000 0.000000 0.000000 1.291188 -0.538282 0.335723 17.863361 2.220994 -0.392422 11.214782 -0.265711 3.374692 0.000000 0.000000 0.000000 1.143742 -0.009208 -0.138829 12.126603 -36.461288 -0.520812 1.978759 -1.338380 -3.075917 13.348561 18.041132 -47.365292 -1.325332 -36.541082 0.041708 0.000000 0.000000 0.000000 0.389494 -0.259155 0.649497 0.604713 -2.030812 7.079305 1.681879 6.315113 -1.211330 0.920072 16.358554 36.769050 0.684550 15.279130 1.227048 0.000000 0.000000 0.000000 
-0.255363 98.979172 -3.983276 0.000000 0.000000 0.000000 3.528334 6.795705 -0.627510 -15.422379 8.234328 7.147676 24.202152 1.891027 -0.530650 -13.296985 1.400148 -6.052992 -1.647713 0.582097 0.945150 0.000000 0.000000 0.000000 3.915595 5.442474 -1.062345 -11.823551 -5.000051 -8.107137 21.728683 -6.505015 5.150063 -6.638466 -16.451057 0.558685 -3.635434 -0.155272 -1.119256 0.000000 0.000000 0.000000 5.077452 3.302313 -1.846434 17.077210 -2.365038 -0.134314 0.280002 -0.159112 1.021694 1.308919 -0.724540 0.081877 0.000000 0.000000 0.000000 1.303674 -0.571443 0.299078 17.715895 1.564024 -0.149131 11.200942 -2.346981 4.303753 0.000000 0.000000 0.000000 1.255587 -0.071448 -0.138041 11.849894 -35.979951 -0.476522 2.042010 -0.990488 -2.900761 14.357249 18.278734 -47.909344 -1.441644 -36.320716 -0.077408 0.000000 0.000000 0.000000 0.462615 -0.300798 0.661426 0.422022 -2.209648 6.818263 1.915458 6.539446 -1.104479 1.170241 15.779036 37.390757 0.671490 15.059884 1.161971 0.000000 0.000000 0.000000 
-0.224702 98.993355 -3.907486 0.000000 0.000000 0.000000 3.288664 6.769582 -0.591795 -15.126647 8.177493 6.999150 24.006243 1.720814 -0.403458 -13.301914 1.343751 -5.926658 -1.706715 0.573054 0.932461 0.000000 0.000000 0.000000 3.683711 5.393681 -1.023363 -11.553871 -4.974734 -8.088777 21.743453 -6.416267 5.144191 -6.589821 -16.505736 0.569698 -3.640041 -0.179405 -1.121907 0.000000 0.000000 0.000000 4.818111 3.422147 -1.777357 16.681187 -2.248974 -0.117175 0.391698 -0.174611 1.066588 1.320274 -0.661841 0.011997 0.000000 0.000000 0.000000 1.291593 -0.584768 0.309184 17.511065 1.020114 0.021059 11.173013 -4.009667 5.058569 0.000000 0.000000 0.000000 1.371602 -0.124885 -0.081589 11.586319 -35.389642 -0.455670 2.044701 -0.598877 -2.780020 14.868798 18.083247 -48.579734 -1.654297 -36.003939 -0.244694 0.000000 0.000000 0.000000 0.534521 -0.326393 0.713592 0.351384 -2.365752 6.795283 2.133054 6.764933 -1.000546 0.619817 15.412786 38.528834 0.619035 14.627113 1.111976 0.000000 0.000000 0.000000 
-0.203145 98.959236 -3.861755 0.000000 0.000000 0.000000 3.019065 6.762683 -0.553210 -14.892901 7.962897 6.826621 23.965428 1.501062 -0.238206 -13.245449 1.307881 -5.806086 -1.635480 0.562764 0.849901 0.000000 0.000000 0.000000 3.407535 5.392059 -0.981397 -11.301509 -4.971199 -8.073303 21.858721 -6.377502 5.153052 -6.628884 -16.606159 0.548755 -3.668187 -0.201021 -1.139758 0.000000 0.000000 0.000000 4.534212 3.579693 -1.713666 16.408990 -2.069400 -0.099995 0.503684 -0.176829 1.149153 1.274907 -0.611842 -0.095441 0.000000 0.000000 0.000000 1.241820 -0.576015 0.353149 17.293892 0.612185 0.096650 11.172542 -5.301034 5.667979 0.000000 0.000000 0.000000 1.460820 -0.159098 0.001141 11.334731 -34.785457 -0.513994 1.978859 -0.209882 -2.742436 14.951479 17.379128 -49.285890 -1.928835 -35.552217 -0.428745 0.000000 0.000000 0.000000 0.591990 -0.317239 0.785944 0.395448 -2.424376 7.100656 2.339645 6.940697 -0.965614 -0.495326 15.266502 40.132450 0.579180 13.980341 1.045868 0.000000 0.000000 0.000000 
-0.189125 98.894447 -3.833549 0.000000 0.000000 0.000000 2.736382 6.800849 -0.485428 -14.629596 7.641281 6.605788 23.932187 1.280535 -0.033641 -13.236112 1.322324 -5.667987 -1.419906 0.556310 0.688254 0.000000 0.000000 0.000000 3.084397 5.463188 -0.912733 -11.044412 -5.014537 -8.087805 22.017854 -6.388480 5.165598 -6.715328 -16.753721 0.527555 -3.709588 -0.218646 -1.170967 0.000000 0.000000 0.000000 4.211223 3.817838 -1.618031 16.239958 -1.838010 -0.082799 0.602639 -0.167661 1.246954 1.228339 -0.565948 -0.137557 0.000000 0.000000 0.000000 1.162004 -0.548266 0.419863 17.113129 0.358768 0.069006 11.228974 -6.233241 6.131299 0.000000 0.000000 0.000000 1.509509 -0.172936 0.090489 11.091849 -34.219388 -0.700872 1.853250 0.134347 -2.767098 14.670063 16.185803 -50.009617 -2.177973 -35.076180 -0.585809 0.000000 0.000000 0.000000 0.633173 -0.277678 0.867169 0.541076 -2.293366 7.725019 2.468038 6.949682 -0.949403 -2.000784 15.257719 42.089046 0.576465 13.375867 0.930283 0.000000 0.000000 0.000000 
